M48
;GenerationSoftware,Autodesk,EAGLE,9.4.2*%
;CreationDate,2021-11-10T19:07:33Z*%
FMAT,2
ICI,OFF
METRIC,TZ,000.000
T6C0.600
T5C1.016
T4C1.575
T3C2.362
T2C2.540
T1C3.000
%
G90
M71
T1
X58420Y15240
X165100Y1270
X5080Y1270
T2
X87630Y1270
T3
X143510Y1270
T4
X31750Y1270
T5
X166370Y16510
X60325Y2540
X163830Y16510
X161290Y16510
X158750Y16510
X156210Y16510
X153670Y16510
X151130Y16510
X148590Y16510
X146050Y16510
X143510Y16510
X140970Y16510
X138430Y16510
X135890Y16510
X133350Y16510
X130810Y16510
X128270Y16510
X125730Y16510
X123190Y16510
X120650Y16510
X118110Y16510
X113030Y16510
X110490Y16510
X107950Y16510
X105410Y16510
X102870Y16510
X100330Y16510
X97790Y16510
X95250Y16510
X92710Y16510
X90170Y16510
X87630Y16510
X85090Y16510
X82550Y16510
X80010Y16510
X77470Y16510
X74930Y16510
X72390Y16510
X69850Y16510
X67310Y16510
X64770Y16510
X52070Y16510
X49530Y16510
X46990Y16510
X44450Y16510
X41910Y16510
X39370Y16510
X36830Y16510
X34290Y16510
X31750Y16510
X29210Y16510
X26670Y16510
X24130Y16510
X21590Y16510
X19050Y16510
X16510Y16510
X13970Y16510
X11430Y16510
X8890Y16510
X6350Y16510
X3810Y16510
X135255Y0
X133985Y2540
X132715Y0
X131445Y2540
X130175Y0
X128905Y2540
X127635Y0
X126365Y2540
X125095Y0
X123825Y2540
X122555Y0
X121285Y2540
X120015Y0
X118745Y2540
X117475Y0
X116205Y2540
X114935Y0
X113665Y2540
X112395Y0
X111125Y2540
X109855Y0
X108585Y2540
X107315Y0
X106045Y2540
X104775Y0
X103505Y2540
X102235Y0
X100965Y2540
X99695Y0
X98425Y2540
X97155Y0
X95885Y2540
X94615Y0
X93345Y2540
X92075Y0
X90805Y2540
X84455Y0
X83185Y2540
X56515Y0
X40005Y2540
X41275Y0
X42545Y2540
X43815Y0
X45085Y2540
X46355Y0
X47625Y2540
X48895Y0
X50165Y2540
X51435Y0
X52705Y2540
X53975Y0
X55245Y2540
X81915Y0
X57785Y2540
X59055Y0
X80645Y2540
X61595Y0
X62865Y2540
X64135Y0
X65405Y2540
X66675Y0
X67945Y2540
X69215Y0
X70485Y2540
X71755Y0
X73025Y2540
X74295Y0
X75565Y2540
X76835Y0
X78105Y2540
X79375Y0
T6
X140335Y1587
X10795Y-2223
X31115Y5398
X26035Y4128
X20955Y4128
X22225Y4128
X26035Y318
X147479Y3334
X139700Y9208
X148908Y4921
X150178Y6350
X94615Y4875
X74295Y6667
X143828Y4286
X117792Y6667
X114617Y8573
X112712Y6667
X116046Y6667
X137478Y9208
X99695Y-1746
X138430Y13017
X129381Y13017
X120650Y12065
X99377Y12700
X76200Y12859
X48577Y10160
X50165Y952
X129699Y18574
X50800Y10954
X53657Y18574
X57150Y6350
X65723Y6667
X133509Y11430
X83503Y14764
X86836Y11430
X86201Y7779
X72390Y6191
X81439Y14605
X80010Y9049
X70485Y7620
X122237Y14605
X124936Y18733
X71438Y19050
X121444Y13494
X127952Y18733
X47307Y11589
X80010Y13017
X80010Y10795
X49212Y11430
X78105Y11000
X79058Y13970
X45356Y11430
X93821Y9208
X88106Y9208
X87313Y7144
X80804Y6509
X78105Y9208
X43339Y7461
X77153Y4604
X97155Y9366
X101124Y9366
X96044Y11430
X95409Y9366
X103822Y17939
X92869Y8096
X83185Y5398
X92075Y5239
X98107Y4921
X98425Y952
X105886Y5715
X80963Y5239
X104934Y4921
X63024Y15240
X59055Y4445
X61277Y3969
X60325Y952
X37306Y6191
X67151Y6191
X65564Y4128
X35560Y11589
X76200Y11112
X91440Y11271
X109855Y6667
X51435Y14287
X35401Y5398
X49054Y14129
X28892Y1587
X28892Y3810
X71755Y-1587
X76835Y-1587
X94615Y-2223
X47466Y13017
X85090Y8573
X27940Y11430
X82391Y9049
X82391Y11430
X107791Y6667
X38418Y0
X151765Y318
X79693Y-2540
M30