G04 EAGLE Gerber RS-274X export*
G75*
%MOMM*%
%FSLAX34Y34*%
%LPD*%
%INBoard Outline*%
%IPPOS*%
%AMOC8*
5,1,8,0,0,1.08239X$1,22.5*%
G01*
%ADD10C,0.000000*%
%ADD11C,0.254000*%


D10*
X0Y-50800D02*
X1698500Y-50800D01*
X1698500Y215800D01*
X0Y215800D01*
X0Y-50800D01*
X1423289Y12700D02*
X1423293Y12990D01*
X1423303Y13280D01*
X1423321Y13569D01*
X1423346Y13858D01*
X1423378Y14146D01*
X1423417Y14433D01*
X1423463Y14719D01*
X1423516Y15004D01*
X1423576Y15288D01*
X1423643Y15570D01*
X1423717Y15850D01*
X1423798Y16129D01*
X1423885Y16405D01*
X1423979Y16679D01*
X1424080Y16951D01*
X1424188Y17220D01*
X1424302Y17486D01*
X1424423Y17750D01*
X1424550Y18010D01*
X1424684Y18268D01*
X1424823Y18522D01*
X1424969Y18772D01*
X1425121Y19019D01*
X1425280Y19262D01*
X1425444Y19501D01*
X1425613Y19736D01*
X1425789Y19967D01*
X1425970Y20193D01*
X1426157Y20415D01*
X1426349Y20632D01*
X1426546Y20844D01*
X1426748Y21052D01*
X1426956Y21254D01*
X1427168Y21451D01*
X1427385Y21643D01*
X1427607Y21830D01*
X1427833Y22011D01*
X1428064Y22187D01*
X1428299Y22356D01*
X1428538Y22520D01*
X1428781Y22679D01*
X1429028Y22831D01*
X1429278Y22977D01*
X1429532Y23116D01*
X1429790Y23250D01*
X1430050Y23377D01*
X1430314Y23498D01*
X1430580Y23612D01*
X1430849Y23720D01*
X1431121Y23821D01*
X1431395Y23915D01*
X1431671Y24002D01*
X1431950Y24083D01*
X1432230Y24157D01*
X1432512Y24224D01*
X1432796Y24284D01*
X1433081Y24337D01*
X1433367Y24383D01*
X1433654Y24422D01*
X1433942Y24454D01*
X1434231Y24479D01*
X1434520Y24497D01*
X1434810Y24507D01*
X1435100Y24511D01*
X1435390Y24507D01*
X1435680Y24497D01*
X1435969Y24479D01*
X1436258Y24454D01*
X1436546Y24422D01*
X1436833Y24383D01*
X1437119Y24337D01*
X1437404Y24284D01*
X1437688Y24224D01*
X1437970Y24157D01*
X1438250Y24083D01*
X1438529Y24002D01*
X1438805Y23915D01*
X1439079Y23821D01*
X1439351Y23720D01*
X1439620Y23612D01*
X1439886Y23498D01*
X1440150Y23377D01*
X1440410Y23250D01*
X1440668Y23116D01*
X1440922Y22977D01*
X1441172Y22831D01*
X1441419Y22679D01*
X1441662Y22520D01*
X1441901Y22356D01*
X1442136Y22187D01*
X1442367Y22011D01*
X1442593Y21830D01*
X1442815Y21643D01*
X1443032Y21451D01*
X1443244Y21254D01*
X1443452Y21052D01*
X1443654Y20844D01*
X1443851Y20632D01*
X1444043Y20415D01*
X1444230Y20193D01*
X1444411Y19967D01*
X1444587Y19736D01*
X1444756Y19501D01*
X1444920Y19262D01*
X1445079Y19019D01*
X1445231Y18772D01*
X1445377Y18522D01*
X1445516Y18268D01*
X1445650Y18010D01*
X1445777Y17750D01*
X1445898Y17486D01*
X1446012Y17220D01*
X1446120Y16951D01*
X1446221Y16679D01*
X1446315Y16405D01*
X1446402Y16129D01*
X1446483Y15850D01*
X1446557Y15570D01*
X1446624Y15288D01*
X1446684Y15004D01*
X1446737Y14719D01*
X1446783Y14433D01*
X1446822Y14146D01*
X1446854Y13858D01*
X1446879Y13569D01*
X1446897Y13280D01*
X1446907Y12990D01*
X1446911Y12700D01*
X1446907Y12410D01*
X1446897Y12120D01*
X1446879Y11831D01*
X1446854Y11542D01*
X1446822Y11254D01*
X1446783Y10967D01*
X1446737Y10681D01*
X1446684Y10396D01*
X1446624Y10112D01*
X1446557Y9830D01*
X1446483Y9550D01*
X1446402Y9271D01*
X1446315Y8995D01*
X1446221Y8721D01*
X1446120Y8449D01*
X1446012Y8180D01*
X1445898Y7914D01*
X1445777Y7650D01*
X1445650Y7390D01*
X1445516Y7132D01*
X1445377Y6878D01*
X1445231Y6628D01*
X1445079Y6381D01*
X1444920Y6138D01*
X1444756Y5899D01*
X1444587Y5664D01*
X1444411Y5433D01*
X1444230Y5207D01*
X1444043Y4985D01*
X1443851Y4768D01*
X1443654Y4556D01*
X1443452Y4348D01*
X1443244Y4146D01*
X1443032Y3949D01*
X1442815Y3757D01*
X1442593Y3570D01*
X1442367Y3389D01*
X1442136Y3213D01*
X1441901Y3044D01*
X1441662Y2880D01*
X1441419Y2721D01*
X1441172Y2569D01*
X1440922Y2423D01*
X1440668Y2284D01*
X1440410Y2150D01*
X1440150Y2023D01*
X1439886Y1902D01*
X1439620Y1788D01*
X1439351Y1680D01*
X1439079Y1579D01*
X1438805Y1485D01*
X1438529Y1398D01*
X1438250Y1317D01*
X1437970Y1243D01*
X1437688Y1176D01*
X1437404Y1116D01*
X1437119Y1063D01*
X1436833Y1017D01*
X1436546Y978D01*
X1436258Y946D01*
X1435969Y921D01*
X1435680Y903D01*
X1435390Y893D01*
X1435100Y889D01*
X1434810Y893D01*
X1434520Y903D01*
X1434231Y921D01*
X1433942Y946D01*
X1433654Y978D01*
X1433367Y1017D01*
X1433081Y1063D01*
X1432796Y1116D01*
X1432512Y1176D01*
X1432230Y1243D01*
X1431950Y1317D01*
X1431671Y1398D01*
X1431395Y1485D01*
X1431121Y1579D01*
X1430849Y1680D01*
X1430580Y1788D01*
X1430314Y1902D01*
X1430050Y2023D01*
X1429790Y2150D01*
X1429532Y2284D01*
X1429278Y2423D01*
X1429028Y2569D01*
X1428781Y2721D01*
X1428538Y2880D01*
X1428299Y3044D01*
X1428064Y3213D01*
X1427833Y3389D01*
X1427607Y3570D01*
X1427385Y3757D01*
X1427168Y3949D01*
X1426956Y4146D01*
X1426748Y4348D01*
X1426546Y4556D01*
X1426349Y4768D01*
X1426157Y4985D01*
X1425970Y5207D01*
X1425789Y5433D01*
X1425613Y5664D01*
X1425444Y5899D01*
X1425280Y6138D01*
X1425121Y6381D01*
X1424969Y6628D01*
X1424823Y6878D01*
X1424684Y7132D01*
X1424550Y7390D01*
X1424423Y7650D01*
X1424302Y7914D01*
X1424188Y8180D01*
X1424080Y8449D01*
X1423979Y8721D01*
X1423885Y8995D01*
X1423798Y9271D01*
X1423717Y9550D01*
X1423643Y9830D01*
X1423576Y10112D01*
X1423516Y10396D01*
X1423463Y10681D01*
X1423417Y10967D01*
X1423378Y11254D01*
X1423346Y11542D01*
X1423321Y11831D01*
X1423303Y12120D01*
X1423293Y12410D01*
X1423289Y12700D01*
X309626Y12700D02*
X309628Y12893D01*
X309635Y13086D01*
X309647Y13279D01*
X309664Y13472D01*
X309685Y13664D01*
X309711Y13855D01*
X309742Y14046D01*
X309777Y14236D01*
X309817Y14425D01*
X309862Y14613D01*
X309911Y14800D01*
X309965Y14986D01*
X310023Y15170D01*
X310086Y15353D01*
X310154Y15534D01*
X310225Y15713D01*
X310302Y15891D01*
X310382Y16067D01*
X310467Y16240D01*
X310556Y16412D01*
X310649Y16581D01*
X310746Y16748D01*
X310848Y16913D01*
X310953Y17075D01*
X311062Y17234D01*
X311176Y17391D01*
X311293Y17544D01*
X311413Y17695D01*
X311538Y17843D01*
X311666Y17988D01*
X311797Y18129D01*
X311932Y18268D01*
X312071Y18403D01*
X312212Y18534D01*
X312357Y18662D01*
X312505Y18787D01*
X312656Y18907D01*
X312809Y19024D01*
X312966Y19138D01*
X313125Y19247D01*
X313287Y19352D01*
X313452Y19454D01*
X313619Y19551D01*
X313788Y19644D01*
X313960Y19733D01*
X314133Y19818D01*
X314309Y19898D01*
X314487Y19975D01*
X314666Y20046D01*
X314847Y20114D01*
X315030Y20177D01*
X315214Y20235D01*
X315400Y20289D01*
X315587Y20338D01*
X315775Y20383D01*
X315964Y20423D01*
X316154Y20458D01*
X316345Y20489D01*
X316536Y20515D01*
X316728Y20536D01*
X316921Y20553D01*
X317114Y20565D01*
X317307Y20572D01*
X317500Y20574D01*
X317693Y20572D01*
X317886Y20565D01*
X318079Y20553D01*
X318272Y20536D01*
X318464Y20515D01*
X318655Y20489D01*
X318846Y20458D01*
X319036Y20423D01*
X319225Y20383D01*
X319413Y20338D01*
X319600Y20289D01*
X319786Y20235D01*
X319970Y20177D01*
X320153Y20114D01*
X320334Y20046D01*
X320513Y19975D01*
X320691Y19898D01*
X320867Y19818D01*
X321040Y19733D01*
X321212Y19644D01*
X321381Y19551D01*
X321548Y19454D01*
X321713Y19352D01*
X321875Y19247D01*
X322034Y19138D01*
X322191Y19024D01*
X322344Y18907D01*
X322495Y18787D01*
X322643Y18662D01*
X322788Y18534D01*
X322929Y18403D01*
X323068Y18268D01*
X323203Y18129D01*
X323334Y17988D01*
X323462Y17843D01*
X323587Y17695D01*
X323707Y17544D01*
X323824Y17391D01*
X323938Y17234D01*
X324047Y17075D01*
X324152Y16913D01*
X324254Y16748D01*
X324351Y16581D01*
X324444Y16412D01*
X324533Y16240D01*
X324618Y16067D01*
X324698Y15891D01*
X324775Y15713D01*
X324846Y15534D01*
X324914Y15353D01*
X324977Y15170D01*
X325035Y14986D01*
X325089Y14800D01*
X325138Y14613D01*
X325183Y14425D01*
X325223Y14236D01*
X325258Y14046D01*
X325289Y13855D01*
X325315Y13664D01*
X325336Y13472D01*
X325353Y13279D01*
X325365Y13086D01*
X325372Y12893D01*
X325374Y12700D01*
X325372Y12507D01*
X325365Y12314D01*
X325353Y12121D01*
X325336Y11928D01*
X325315Y11736D01*
X325289Y11545D01*
X325258Y11354D01*
X325223Y11164D01*
X325183Y10975D01*
X325138Y10787D01*
X325089Y10600D01*
X325035Y10414D01*
X324977Y10230D01*
X324914Y10047D01*
X324846Y9866D01*
X324775Y9687D01*
X324698Y9509D01*
X324618Y9333D01*
X324533Y9160D01*
X324444Y8988D01*
X324351Y8819D01*
X324254Y8652D01*
X324152Y8487D01*
X324047Y8325D01*
X323938Y8166D01*
X323824Y8009D01*
X323707Y7856D01*
X323587Y7705D01*
X323462Y7557D01*
X323334Y7412D01*
X323203Y7271D01*
X323068Y7132D01*
X322929Y6997D01*
X322788Y6866D01*
X322643Y6738D01*
X322495Y6613D01*
X322344Y6493D01*
X322191Y6376D01*
X322034Y6262D01*
X321875Y6153D01*
X321713Y6048D01*
X321548Y5946D01*
X321381Y5849D01*
X321212Y5756D01*
X321040Y5667D01*
X320867Y5582D01*
X320691Y5502D01*
X320513Y5425D01*
X320334Y5354D01*
X320153Y5286D01*
X319970Y5223D01*
X319786Y5165D01*
X319600Y5111D01*
X319413Y5062D01*
X319225Y5017D01*
X319036Y4977D01*
X318846Y4942D01*
X318655Y4911D01*
X318464Y4885D01*
X318272Y4864D01*
X318079Y4847D01*
X317886Y4835D01*
X317693Y4828D01*
X317500Y4826D01*
X317307Y4828D01*
X317114Y4835D01*
X316921Y4847D01*
X316728Y4864D01*
X316536Y4885D01*
X316345Y4911D01*
X316154Y4942D01*
X315964Y4977D01*
X315775Y5017D01*
X315587Y5062D01*
X315400Y5111D01*
X315214Y5165D01*
X315030Y5223D01*
X314847Y5286D01*
X314666Y5354D01*
X314487Y5425D01*
X314309Y5502D01*
X314133Y5582D01*
X313960Y5667D01*
X313788Y5756D01*
X313619Y5849D01*
X313452Y5946D01*
X313287Y6048D01*
X313125Y6153D01*
X312966Y6262D01*
X312809Y6376D01*
X312656Y6493D01*
X312505Y6613D01*
X312357Y6738D01*
X312212Y6866D01*
X312071Y6997D01*
X311932Y7132D01*
X311797Y7271D01*
X311666Y7412D01*
X311538Y7557D01*
X311413Y7705D01*
X311293Y7856D01*
X311176Y8009D01*
X311062Y8166D01*
X310953Y8325D01*
X310848Y8487D01*
X310746Y8652D01*
X310649Y8819D01*
X310556Y8988D01*
X310467Y9160D01*
X310382Y9333D01*
X310302Y9509D01*
X310225Y9687D01*
X310154Y9866D01*
X310086Y10047D01*
X310023Y10230D01*
X309965Y10414D01*
X309911Y10600D01*
X309862Y10787D01*
X309817Y10975D01*
X309777Y11164D01*
X309742Y11354D01*
X309711Y11545D01*
X309685Y11736D01*
X309664Y11928D01*
X309647Y12121D01*
X309635Y12314D01*
X309628Y12507D01*
X309626Y12700D01*
X863600Y12700D02*
X863604Y13012D01*
X863615Y13323D01*
X863634Y13634D01*
X863661Y13945D01*
X863696Y14255D01*
X863737Y14563D01*
X863787Y14871D01*
X863844Y15178D01*
X863909Y15483D01*
X863981Y15786D01*
X864060Y16087D01*
X864147Y16387D01*
X864241Y16684D01*
X864342Y16979D01*
X864451Y17271D01*
X864567Y17560D01*
X864690Y17847D01*
X864819Y18130D01*
X864956Y18410D01*
X865100Y18687D01*
X865250Y18960D01*
X865407Y19229D01*
X865570Y19494D01*
X865740Y19756D01*
X865917Y20013D01*
X866099Y20265D01*
X866288Y20513D01*
X866483Y20757D01*
X866683Y20995D01*
X866890Y21229D01*
X867102Y21457D01*
X867320Y21680D01*
X867543Y21898D01*
X867771Y22110D01*
X868005Y22317D01*
X868243Y22517D01*
X868487Y22712D01*
X868735Y22901D01*
X868987Y23083D01*
X869244Y23260D01*
X869506Y23430D01*
X869771Y23593D01*
X870040Y23750D01*
X870313Y23900D01*
X870590Y24044D01*
X870870Y24181D01*
X871153Y24310D01*
X871440Y24433D01*
X871729Y24549D01*
X872021Y24658D01*
X872316Y24759D01*
X872613Y24853D01*
X872913Y24940D01*
X873214Y25019D01*
X873517Y25091D01*
X873822Y25156D01*
X874129Y25213D01*
X874437Y25263D01*
X874745Y25304D01*
X875055Y25339D01*
X875366Y25366D01*
X875677Y25385D01*
X875988Y25396D01*
X876300Y25400D01*
X876612Y25396D01*
X876923Y25385D01*
X877234Y25366D01*
X877545Y25339D01*
X877855Y25304D01*
X878163Y25263D01*
X878471Y25213D01*
X878778Y25156D01*
X879083Y25091D01*
X879386Y25019D01*
X879687Y24940D01*
X879987Y24853D01*
X880284Y24759D01*
X880579Y24658D01*
X880871Y24549D01*
X881160Y24433D01*
X881447Y24310D01*
X881730Y24181D01*
X882010Y24044D01*
X882287Y23900D01*
X882560Y23750D01*
X882829Y23593D01*
X883094Y23430D01*
X883356Y23260D01*
X883613Y23083D01*
X883865Y22901D01*
X884113Y22712D01*
X884357Y22517D01*
X884595Y22317D01*
X884829Y22110D01*
X885057Y21898D01*
X885280Y21680D01*
X885498Y21457D01*
X885710Y21229D01*
X885917Y20995D01*
X886117Y20757D01*
X886312Y20513D01*
X886501Y20265D01*
X886683Y20013D01*
X886860Y19756D01*
X887030Y19494D01*
X887193Y19229D01*
X887350Y18960D01*
X887500Y18687D01*
X887644Y18410D01*
X887781Y18130D01*
X887910Y17847D01*
X888033Y17560D01*
X888149Y17271D01*
X888258Y16979D01*
X888359Y16684D01*
X888453Y16387D01*
X888540Y16087D01*
X888619Y15786D01*
X888691Y15483D01*
X888756Y15178D01*
X888813Y14871D01*
X888863Y14563D01*
X888904Y14255D01*
X888939Y13945D01*
X888966Y13634D01*
X888985Y13323D01*
X888996Y13012D01*
X889000Y12700D01*
X888996Y12388D01*
X888985Y12077D01*
X888966Y11766D01*
X888939Y11455D01*
X888904Y11145D01*
X888863Y10837D01*
X888813Y10529D01*
X888756Y10222D01*
X888691Y9917D01*
X888619Y9614D01*
X888540Y9313D01*
X888453Y9013D01*
X888359Y8716D01*
X888258Y8421D01*
X888149Y8129D01*
X888033Y7840D01*
X887910Y7553D01*
X887781Y7270D01*
X887644Y6990D01*
X887500Y6713D01*
X887350Y6440D01*
X887193Y6171D01*
X887030Y5906D01*
X886860Y5644D01*
X886683Y5387D01*
X886501Y5135D01*
X886312Y4887D01*
X886117Y4643D01*
X885917Y4405D01*
X885710Y4171D01*
X885498Y3943D01*
X885280Y3720D01*
X885057Y3502D01*
X884829Y3290D01*
X884595Y3083D01*
X884357Y2883D01*
X884113Y2688D01*
X883865Y2499D01*
X883613Y2317D01*
X883356Y2140D01*
X883094Y1970D01*
X882829Y1807D01*
X882560Y1650D01*
X882287Y1500D01*
X882010Y1356D01*
X881730Y1219D01*
X881447Y1090D01*
X881160Y967D01*
X880871Y851D01*
X880579Y742D01*
X880284Y641D01*
X879987Y547D01*
X879687Y460D01*
X879386Y381D01*
X879083Y309D01*
X878778Y244D01*
X878471Y187D01*
X878163Y137D01*
X877855Y96D01*
X877545Y61D01*
X877234Y34D01*
X876923Y15D01*
X876612Y4D01*
X876300Y0D01*
X875988Y4D01*
X875677Y15D01*
X875366Y34D01*
X875055Y61D01*
X874745Y96D01*
X874437Y137D01*
X874129Y187D01*
X873822Y244D01*
X873517Y309D01*
X873214Y381D01*
X872913Y460D01*
X872613Y547D01*
X872316Y641D01*
X872021Y742D01*
X871729Y851D01*
X871440Y967D01*
X871153Y1090D01*
X870870Y1219D01*
X870590Y1356D01*
X870313Y1500D01*
X870040Y1650D01*
X869771Y1807D01*
X869506Y1970D01*
X869244Y2140D01*
X868987Y2317D01*
X868735Y2499D01*
X868487Y2688D01*
X868243Y2883D01*
X868005Y3083D01*
X867771Y3290D01*
X867543Y3502D01*
X867320Y3720D01*
X867102Y3943D01*
X866890Y4171D01*
X866683Y4405D01*
X866483Y4643D01*
X866288Y4887D01*
X866099Y5135D01*
X865917Y5387D01*
X865740Y5644D01*
X865570Y5906D01*
X865407Y6171D01*
X865250Y6440D01*
X865100Y6713D01*
X864956Y6990D01*
X864819Y7270D01*
X864690Y7553D01*
X864567Y7840D01*
X864451Y8129D01*
X864342Y8421D01*
X864241Y8716D01*
X864147Y9013D01*
X864060Y9313D01*
X863981Y9614D01*
X863909Y9917D01*
X863844Y10222D01*
X863787Y10529D01*
X863737Y10837D01*
X863696Y11145D01*
X863661Y11455D01*
X863634Y11766D01*
X863615Y12077D01*
X863604Y12388D01*
X863600Y12700D01*
X35800Y12700D02*
X35805Y13068D01*
X35818Y13436D01*
X35841Y13803D01*
X35872Y14170D01*
X35913Y14536D01*
X35962Y14901D01*
X36021Y15264D01*
X36088Y15626D01*
X36164Y15987D01*
X36250Y16345D01*
X36343Y16701D01*
X36446Y17054D01*
X36557Y17405D01*
X36677Y17753D01*
X36805Y18098D01*
X36942Y18440D01*
X37087Y18779D01*
X37240Y19113D01*
X37402Y19444D01*
X37571Y19771D01*
X37749Y20093D01*
X37934Y20412D01*
X38127Y20725D01*
X38328Y21034D01*
X38536Y21337D01*
X38752Y21635D01*
X38975Y21928D01*
X39205Y22216D01*
X39442Y22498D01*
X39686Y22773D01*
X39936Y23043D01*
X40193Y23307D01*
X40457Y23564D01*
X40727Y23814D01*
X41002Y24058D01*
X41284Y24295D01*
X41572Y24525D01*
X41865Y24748D01*
X42163Y24964D01*
X42466Y25172D01*
X42775Y25373D01*
X43088Y25566D01*
X43407Y25751D01*
X43729Y25929D01*
X44056Y26098D01*
X44387Y26260D01*
X44721Y26413D01*
X45060Y26558D01*
X45402Y26695D01*
X45747Y26823D01*
X46095Y26943D01*
X46446Y27054D01*
X46799Y27157D01*
X47155Y27250D01*
X47513Y27336D01*
X47874Y27412D01*
X48236Y27479D01*
X48599Y27538D01*
X48964Y27587D01*
X49330Y27628D01*
X49697Y27659D01*
X50064Y27682D01*
X50432Y27695D01*
X50800Y27700D01*
X51168Y27695D01*
X51536Y27682D01*
X51903Y27659D01*
X52270Y27628D01*
X52636Y27587D01*
X53001Y27538D01*
X53364Y27479D01*
X53726Y27412D01*
X54087Y27336D01*
X54445Y27250D01*
X54801Y27157D01*
X55154Y27054D01*
X55505Y26943D01*
X55853Y26823D01*
X56198Y26695D01*
X56540Y26558D01*
X56879Y26413D01*
X57213Y26260D01*
X57544Y26098D01*
X57871Y25929D01*
X58193Y25751D01*
X58512Y25566D01*
X58825Y25373D01*
X59134Y25172D01*
X59437Y24964D01*
X59735Y24748D01*
X60028Y24525D01*
X60316Y24295D01*
X60598Y24058D01*
X60873Y23814D01*
X61143Y23564D01*
X61407Y23307D01*
X61664Y23043D01*
X61914Y22773D01*
X62158Y22498D01*
X62395Y22216D01*
X62625Y21928D01*
X62848Y21635D01*
X63064Y21337D01*
X63272Y21034D01*
X63473Y20725D01*
X63666Y20412D01*
X63851Y20093D01*
X64029Y19771D01*
X64198Y19444D01*
X64360Y19113D01*
X64513Y18779D01*
X64658Y18440D01*
X64795Y18098D01*
X64923Y17753D01*
X65043Y17405D01*
X65154Y17054D01*
X65257Y16701D01*
X65350Y16345D01*
X65436Y15987D01*
X65512Y15626D01*
X65579Y15264D01*
X65638Y14901D01*
X65687Y14536D01*
X65728Y14170D01*
X65759Y13803D01*
X65782Y13436D01*
X65795Y13068D01*
X65800Y12700D01*
X65795Y12332D01*
X65782Y11964D01*
X65759Y11597D01*
X65728Y11230D01*
X65687Y10864D01*
X65638Y10499D01*
X65579Y10136D01*
X65512Y9774D01*
X65436Y9413D01*
X65350Y9055D01*
X65257Y8699D01*
X65154Y8346D01*
X65043Y7995D01*
X64923Y7647D01*
X64795Y7302D01*
X64658Y6960D01*
X64513Y6621D01*
X64360Y6287D01*
X64198Y5956D01*
X64029Y5629D01*
X63851Y5307D01*
X63666Y4988D01*
X63473Y4675D01*
X63272Y4366D01*
X63064Y4063D01*
X62848Y3765D01*
X62625Y3472D01*
X62395Y3184D01*
X62158Y2902D01*
X61914Y2627D01*
X61664Y2357D01*
X61407Y2093D01*
X61143Y1836D01*
X60873Y1586D01*
X60598Y1342D01*
X60316Y1105D01*
X60028Y875D01*
X59735Y652D01*
X59437Y436D01*
X59134Y228D01*
X58825Y27D01*
X58512Y-166D01*
X58193Y-351D01*
X57871Y-529D01*
X57544Y-698D01*
X57213Y-860D01*
X56879Y-1013D01*
X56540Y-1158D01*
X56198Y-1295D01*
X55853Y-1423D01*
X55505Y-1543D01*
X55154Y-1654D01*
X54801Y-1757D01*
X54445Y-1850D01*
X54087Y-1936D01*
X53726Y-2012D01*
X53364Y-2079D01*
X53001Y-2138D01*
X52636Y-2187D01*
X52270Y-2228D01*
X51903Y-2259D01*
X51536Y-2282D01*
X51168Y-2295D01*
X50800Y-2300D01*
X50432Y-2295D01*
X50064Y-2282D01*
X49697Y-2259D01*
X49330Y-2228D01*
X48964Y-2187D01*
X48599Y-2138D01*
X48236Y-2079D01*
X47874Y-2012D01*
X47513Y-1936D01*
X47155Y-1850D01*
X46799Y-1757D01*
X46446Y-1654D01*
X46095Y-1543D01*
X45747Y-1423D01*
X45402Y-1295D01*
X45060Y-1158D01*
X44721Y-1013D01*
X44387Y-860D01*
X44056Y-698D01*
X43729Y-529D01*
X43407Y-351D01*
X43088Y-166D01*
X42775Y27D01*
X42466Y228D01*
X42163Y436D01*
X41865Y652D01*
X41572Y875D01*
X41284Y1105D01*
X41002Y1342D01*
X40727Y1586D01*
X40457Y1836D01*
X40193Y2093D01*
X39936Y2357D01*
X39686Y2627D01*
X39442Y2902D01*
X39205Y3184D01*
X38975Y3472D01*
X38752Y3765D01*
X38536Y4063D01*
X38328Y4366D01*
X38127Y4675D01*
X37934Y4988D01*
X37749Y5307D01*
X37571Y5629D01*
X37402Y5956D01*
X37240Y6287D01*
X37087Y6621D01*
X36942Y6960D01*
X36805Y7302D01*
X36677Y7647D01*
X36557Y7995D01*
X36446Y8346D01*
X36343Y8699D01*
X36250Y9055D01*
X36164Y9413D01*
X36088Y9774D01*
X36021Y10136D01*
X35962Y10499D01*
X35913Y10864D01*
X35872Y11230D01*
X35841Y11597D01*
X35818Y11964D01*
X35805Y12332D01*
X35800Y12700D01*
X1636000Y12700D02*
X1636005Y13068D01*
X1636018Y13436D01*
X1636041Y13803D01*
X1636072Y14170D01*
X1636113Y14536D01*
X1636162Y14901D01*
X1636221Y15264D01*
X1636288Y15626D01*
X1636364Y15987D01*
X1636450Y16345D01*
X1636543Y16701D01*
X1636646Y17054D01*
X1636757Y17405D01*
X1636877Y17753D01*
X1637005Y18098D01*
X1637142Y18440D01*
X1637287Y18779D01*
X1637440Y19113D01*
X1637602Y19444D01*
X1637771Y19771D01*
X1637949Y20093D01*
X1638134Y20412D01*
X1638327Y20725D01*
X1638528Y21034D01*
X1638736Y21337D01*
X1638952Y21635D01*
X1639175Y21928D01*
X1639405Y22216D01*
X1639642Y22498D01*
X1639886Y22773D01*
X1640136Y23043D01*
X1640393Y23307D01*
X1640657Y23564D01*
X1640927Y23814D01*
X1641202Y24058D01*
X1641484Y24295D01*
X1641772Y24525D01*
X1642065Y24748D01*
X1642363Y24964D01*
X1642666Y25172D01*
X1642975Y25373D01*
X1643288Y25566D01*
X1643607Y25751D01*
X1643929Y25929D01*
X1644256Y26098D01*
X1644587Y26260D01*
X1644921Y26413D01*
X1645260Y26558D01*
X1645602Y26695D01*
X1645947Y26823D01*
X1646295Y26943D01*
X1646646Y27054D01*
X1646999Y27157D01*
X1647355Y27250D01*
X1647713Y27336D01*
X1648074Y27412D01*
X1648436Y27479D01*
X1648799Y27538D01*
X1649164Y27587D01*
X1649530Y27628D01*
X1649897Y27659D01*
X1650264Y27682D01*
X1650632Y27695D01*
X1651000Y27700D01*
X1651368Y27695D01*
X1651736Y27682D01*
X1652103Y27659D01*
X1652470Y27628D01*
X1652836Y27587D01*
X1653201Y27538D01*
X1653564Y27479D01*
X1653926Y27412D01*
X1654287Y27336D01*
X1654645Y27250D01*
X1655001Y27157D01*
X1655354Y27054D01*
X1655705Y26943D01*
X1656053Y26823D01*
X1656398Y26695D01*
X1656740Y26558D01*
X1657079Y26413D01*
X1657413Y26260D01*
X1657744Y26098D01*
X1658071Y25929D01*
X1658393Y25751D01*
X1658712Y25566D01*
X1659025Y25373D01*
X1659334Y25172D01*
X1659637Y24964D01*
X1659935Y24748D01*
X1660228Y24525D01*
X1660516Y24295D01*
X1660798Y24058D01*
X1661073Y23814D01*
X1661343Y23564D01*
X1661607Y23307D01*
X1661864Y23043D01*
X1662114Y22773D01*
X1662358Y22498D01*
X1662595Y22216D01*
X1662825Y21928D01*
X1663048Y21635D01*
X1663264Y21337D01*
X1663472Y21034D01*
X1663673Y20725D01*
X1663866Y20412D01*
X1664051Y20093D01*
X1664229Y19771D01*
X1664398Y19444D01*
X1664560Y19113D01*
X1664713Y18779D01*
X1664858Y18440D01*
X1664995Y18098D01*
X1665123Y17753D01*
X1665243Y17405D01*
X1665354Y17054D01*
X1665457Y16701D01*
X1665550Y16345D01*
X1665636Y15987D01*
X1665712Y15626D01*
X1665779Y15264D01*
X1665838Y14901D01*
X1665887Y14536D01*
X1665928Y14170D01*
X1665959Y13803D01*
X1665982Y13436D01*
X1665995Y13068D01*
X1666000Y12700D01*
X1665995Y12332D01*
X1665982Y11964D01*
X1665959Y11597D01*
X1665928Y11230D01*
X1665887Y10864D01*
X1665838Y10499D01*
X1665779Y10136D01*
X1665712Y9774D01*
X1665636Y9413D01*
X1665550Y9055D01*
X1665457Y8699D01*
X1665354Y8346D01*
X1665243Y7995D01*
X1665123Y7647D01*
X1664995Y7302D01*
X1664858Y6960D01*
X1664713Y6621D01*
X1664560Y6287D01*
X1664398Y5956D01*
X1664229Y5629D01*
X1664051Y5307D01*
X1663866Y4988D01*
X1663673Y4675D01*
X1663472Y4366D01*
X1663264Y4063D01*
X1663048Y3765D01*
X1662825Y3472D01*
X1662595Y3184D01*
X1662358Y2902D01*
X1662114Y2627D01*
X1661864Y2357D01*
X1661607Y2093D01*
X1661343Y1836D01*
X1661073Y1586D01*
X1660798Y1342D01*
X1660516Y1105D01*
X1660228Y875D01*
X1659935Y652D01*
X1659637Y436D01*
X1659334Y228D01*
X1659025Y27D01*
X1658712Y-166D01*
X1658393Y-351D01*
X1658071Y-529D01*
X1657744Y-698D01*
X1657413Y-860D01*
X1657079Y-1013D01*
X1656740Y-1158D01*
X1656398Y-1295D01*
X1656053Y-1423D01*
X1655705Y-1543D01*
X1655354Y-1654D01*
X1655001Y-1757D01*
X1654645Y-1850D01*
X1654287Y-1936D01*
X1653926Y-2012D01*
X1653564Y-2079D01*
X1653201Y-2138D01*
X1652836Y-2187D01*
X1652470Y-2228D01*
X1652103Y-2259D01*
X1651736Y-2282D01*
X1651368Y-2295D01*
X1651000Y-2300D01*
X1650632Y-2295D01*
X1650264Y-2282D01*
X1649897Y-2259D01*
X1649530Y-2228D01*
X1649164Y-2187D01*
X1648799Y-2138D01*
X1648436Y-2079D01*
X1648074Y-2012D01*
X1647713Y-1936D01*
X1647355Y-1850D01*
X1646999Y-1757D01*
X1646646Y-1654D01*
X1646295Y-1543D01*
X1645947Y-1423D01*
X1645602Y-1295D01*
X1645260Y-1158D01*
X1644921Y-1013D01*
X1644587Y-860D01*
X1644256Y-698D01*
X1643929Y-529D01*
X1643607Y-351D01*
X1643288Y-166D01*
X1642975Y27D01*
X1642666Y228D01*
X1642363Y436D01*
X1642065Y652D01*
X1641772Y875D01*
X1641484Y1105D01*
X1641202Y1342D01*
X1640927Y1586D01*
X1640657Y1836D01*
X1640393Y2093D01*
X1640136Y2357D01*
X1639886Y2627D01*
X1639642Y2902D01*
X1639405Y3184D01*
X1639175Y3472D01*
X1638952Y3765D01*
X1638736Y4063D01*
X1638528Y4366D01*
X1638327Y4675D01*
X1638134Y4988D01*
X1637949Y5307D01*
X1637771Y5629D01*
X1637602Y5956D01*
X1637440Y6287D01*
X1637287Y6621D01*
X1637142Y6960D01*
X1637005Y7302D01*
X1636877Y7647D01*
X1636757Y7995D01*
X1636646Y8346D01*
X1636543Y8699D01*
X1636450Y9055D01*
X1636364Y9413D01*
X1636288Y9774D01*
X1636221Y10136D01*
X1636162Y10499D01*
X1636113Y10864D01*
X1636072Y11230D01*
X1636041Y11597D01*
X1636018Y11964D01*
X1636005Y12332D01*
X1636000Y12700D01*
X569200Y152400D02*
X569205Y152768D01*
X569218Y153136D01*
X569241Y153503D01*
X569272Y153870D01*
X569313Y154236D01*
X569362Y154601D01*
X569421Y154964D01*
X569488Y155326D01*
X569564Y155687D01*
X569650Y156045D01*
X569743Y156401D01*
X569846Y156754D01*
X569957Y157105D01*
X570077Y157453D01*
X570205Y157798D01*
X570342Y158140D01*
X570487Y158479D01*
X570640Y158813D01*
X570802Y159144D01*
X570971Y159471D01*
X571149Y159793D01*
X571334Y160112D01*
X571527Y160425D01*
X571728Y160734D01*
X571936Y161037D01*
X572152Y161335D01*
X572375Y161628D01*
X572605Y161916D01*
X572842Y162198D01*
X573086Y162473D01*
X573336Y162743D01*
X573593Y163007D01*
X573857Y163264D01*
X574127Y163514D01*
X574402Y163758D01*
X574684Y163995D01*
X574972Y164225D01*
X575265Y164448D01*
X575563Y164664D01*
X575866Y164872D01*
X576175Y165073D01*
X576488Y165266D01*
X576807Y165451D01*
X577129Y165629D01*
X577456Y165798D01*
X577787Y165960D01*
X578121Y166113D01*
X578460Y166258D01*
X578802Y166395D01*
X579147Y166523D01*
X579495Y166643D01*
X579846Y166754D01*
X580199Y166857D01*
X580555Y166950D01*
X580913Y167036D01*
X581274Y167112D01*
X581636Y167179D01*
X581999Y167238D01*
X582364Y167287D01*
X582730Y167328D01*
X583097Y167359D01*
X583464Y167382D01*
X583832Y167395D01*
X584200Y167400D01*
X584568Y167395D01*
X584936Y167382D01*
X585303Y167359D01*
X585670Y167328D01*
X586036Y167287D01*
X586401Y167238D01*
X586764Y167179D01*
X587126Y167112D01*
X587487Y167036D01*
X587845Y166950D01*
X588201Y166857D01*
X588554Y166754D01*
X588905Y166643D01*
X589253Y166523D01*
X589598Y166395D01*
X589940Y166258D01*
X590279Y166113D01*
X590613Y165960D01*
X590944Y165798D01*
X591271Y165629D01*
X591593Y165451D01*
X591912Y165266D01*
X592225Y165073D01*
X592534Y164872D01*
X592837Y164664D01*
X593135Y164448D01*
X593428Y164225D01*
X593716Y163995D01*
X593998Y163758D01*
X594273Y163514D01*
X594543Y163264D01*
X594807Y163007D01*
X595064Y162743D01*
X595314Y162473D01*
X595558Y162198D01*
X595795Y161916D01*
X596025Y161628D01*
X596248Y161335D01*
X596464Y161037D01*
X596672Y160734D01*
X596873Y160425D01*
X597066Y160112D01*
X597251Y159793D01*
X597429Y159471D01*
X597598Y159144D01*
X597760Y158813D01*
X597913Y158479D01*
X598058Y158140D01*
X598195Y157798D01*
X598323Y157453D01*
X598443Y157105D01*
X598554Y156754D01*
X598657Y156401D01*
X598750Y156045D01*
X598836Y155687D01*
X598912Y155326D01*
X598979Y154964D01*
X599038Y154601D01*
X599087Y154236D01*
X599128Y153870D01*
X599159Y153503D01*
X599182Y153136D01*
X599195Y152768D01*
X599200Y152400D01*
X599195Y152032D01*
X599182Y151664D01*
X599159Y151297D01*
X599128Y150930D01*
X599087Y150564D01*
X599038Y150199D01*
X598979Y149836D01*
X598912Y149474D01*
X598836Y149113D01*
X598750Y148755D01*
X598657Y148399D01*
X598554Y148046D01*
X598443Y147695D01*
X598323Y147347D01*
X598195Y147002D01*
X598058Y146660D01*
X597913Y146321D01*
X597760Y145987D01*
X597598Y145656D01*
X597429Y145329D01*
X597251Y145007D01*
X597066Y144688D01*
X596873Y144375D01*
X596672Y144066D01*
X596464Y143763D01*
X596248Y143465D01*
X596025Y143172D01*
X595795Y142884D01*
X595558Y142602D01*
X595314Y142327D01*
X595064Y142057D01*
X594807Y141793D01*
X594543Y141536D01*
X594273Y141286D01*
X593998Y141042D01*
X593716Y140805D01*
X593428Y140575D01*
X593135Y140352D01*
X592837Y140136D01*
X592534Y139928D01*
X592225Y139727D01*
X591912Y139534D01*
X591593Y139349D01*
X591271Y139171D01*
X590944Y139002D01*
X590613Y138840D01*
X590279Y138687D01*
X589940Y138542D01*
X589598Y138405D01*
X589253Y138277D01*
X588905Y138157D01*
X588554Y138046D01*
X588201Y137943D01*
X587845Y137850D01*
X587487Y137764D01*
X587126Y137688D01*
X586764Y137621D01*
X586401Y137562D01*
X586036Y137513D01*
X585670Y137472D01*
X585303Y137441D01*
X584936Y137418D01*
X584568Y137405D01*
X584200Y137400D01*
X583832Y137405D01*
X583464Y137418D01*
X583097Y137441D01*
X582730Y137472D01*
X582364Y137513D01*
X581999Y137562D01*
X581636Y137621D01*
X581274Y137688D01*
X580913Y137764D01*
X580555Y137850D01*
X580199Y137943D01*
X579846Y138046D01*
X579495Y138157D01*
X579147Y138277D01*
X578802Y138405D01*
X578460Y138542D01*
X578121Y138687D01*
X577787Y138840D01*
X577456Y139002D01*
X577129Y139171D01*
X576807Y139349D01*
X576488Y139534D01*
X576175Y139727D01*
X575866Y139928D01*
X575563Y140136D01*
X575265Y140352D01*
X574972Y140575D01*
X574684Y140805D01*
X574402Y141042D01*
X574127Y141286D01*
X573857Y141536D01*
X573593Y141793D01*
X573336Y142057D01*
X573086Y142327D01*
X572842Y142602D01*
X572605Y142884D01*
X572375Y143172D01*
X572152Y143465D01*
X571936Y143763D01*
X571728Y144066D01*
X571527Y144375D01*
X571334Y144688D01*
X571149Y145007D01*
X570971Y145329D01*
X570802Y145656D01*
X570640Y145987D01*
X570487Y146321D01*
X570342Y146660D01*
X570205Y147002D01*
X570077Y147347D01*
X569957Y147695D01*
X569846Y148046D01*
X569743Y148399D01*
X569650Y148755D01*
X569564Y149113D01*
X569488Y149474D01*
X569421Y149836D01*
X569362Y150199D01*
X569313Y150564D01*
X569272Y150930D01*
X569241Y151297D01*
X569218Y151664D01*
X569205Y152032D01*
X569200Y152400D01*
D11*
X0Y-50800D02*
X1698500Y-50800D01*
X1698500Y215800D01*
X0Y215800D01*
X0Y-50800D01*
X1423289Y13164D02*
X1423362Y14089D01*
X1423507Y15006D01*
X1423724Y15908D01*
X1424010Y16791D01*
X1424366Y17649D01*
X1424787Y18476D01*
X1425272Y19267D01*
X1425817Y20018D01*
X1426420Y20724D01*
X1427077Y21380D01*
X1427782Y21983D01*
X1428533Y22528D01*
X1429324Y23013D01*
X1430151Y23434D01*
X1431009Y23790D01*
X1431892Y24076D01*
X1432794Y24293D01*
X1433711Y24438D01*
X1434636Y24511D01*
X1435564Y24511D01*
X1436489Y24438D01*
X1437406Y24293D01*
X1438308Y24076D01*
X1439191Y23790D01*
X1440049Y23434D01*
X1440876Y23013D01*
X1441667Y22528D01*
X1442418Y21983D01*
X1443124Y21380D01*
X1443780Y20724D01*
X1444383Y20018D01*
X1444928Y19267D01*
X1445413Y18476D01*
X1445834Y17649D01*
X1446190Y16791D01*
X1446476Y15908D01*
X1446693Y15006D01*
X1446838Y14089D01*
X1446911Y13164D01*
X1446911Y12236D01*
X1446838Y11311D01*
X1446693Y10394D01*
X1446476Y9492D01*
X1446190Y8609D01*
X1445834Y7751D01*
X1445413Y6924D01*
X1444928Y6133D01*
X1444383Y5382D01*
X1443780Y4677D01*
X1443124Y4020D01*
X1442418Y3417D01*
X1441667Y2872D01*
X1440876Y2387D01*
X1440049Y1966D01*
X1439191Y1610D01*
X1438308Y1324D01*
X1437406Y1107D01*
X1436489Y962D01*
X1435564Y889D01*
X1434636Y889D01*
X1433711Y962D01*
X1432794Y1107D01*
X1431892Y1324D01*
X1431009Y1610D01*
X1430151Y1966D01*
X1429324Y2387D01*
X1428533Y2872D01*
X1427782Y3417D01*
X1427077Y4020D01*
X1426420Y4677D01*
X1425817Y5382D01*
X1425272Y6133D01*
X1424787Y6924D01*
X1424366Y7751D01*
X1424010Y8609D01*
X1423724Y9492D01*
X1423507Y10394D01*
X1423362Y11311D01*
X1423289Y12236D01*
X1423289Y13164D01*
X309626Y13087D02*
X309702Y13857D01*
X309853Y14616D01*
X310077Y15356D01*
X310373Y16071D01*
X310738Y16753D01*
X311168Y17396D01*
X311659Y17994D01*
X312206Y18541D01*
X312804Y19032D01*
X313447Y19462D01*
X314129Y19827D01*
X314844Y20123D01*
X315584Y20347D01*
X316343Y20498D01*
X317113Y20574D01*
X317887Y20574D01*
X318657Y20498D01*
X319416Y20347D01*
X320156Y20123D01*
X320871Y19827D01*
X321553Y19462D01*
X322196Y19032D01*
X322794Y18541D01*
X323341Y17994D01*
X323832Y17396D01*
X324262Y16753D01*
X324627Y16071D01*
X324923Y15356D01*
X325147Y14616D01*
X325298Y13857D01*
X325374Y13087D01*
X325374Y12313D01*
X325298Y11543D01*
X325147Y10784D01*
X324923Y10044D01*
X324627Y9329D01*
X324262Y8647D01*
X323832Y8004D01*
X323341Y7406D01*
X322794Y6859D01*
X322196Y6368D01*
X321553Y5938D01*
X320871Y5573D01*
X320156Y5277D01*
X319416Y5053D01*
X318657Y4902D01*
X317887Y4826D01*
X317113Y4826D01*
X316343Y4902D01*
X315584Y5053D01*
X314844Y5277D01*
X314129Y5573D01*
X313447Y5938D01*
X312804Y6368D01*
X312206Y6859D01*
X311659Y7406D01*
X311168Y8004D01*
X310738Y8647D01*
X310373Y9329D01*
X310077Y10044D01*
X309853Y10784D01*
X309702Y11543D01*
X309626Y12313D01*
X309626Y13087D01*
X863600Y13199D02*
X863678Y14194D01*
X863834Y15180D01*
X864067Y16150D01*
X864376Y17099D01*
X864758Y18021D01*
X865211Y18910D01*
X865732Y19761D01*
X866319Y20569D01*
X866967Y21327D01*
X867673Y22033D01*
X868431Y22681D01*
X869239Y23268D01*
X870090Y23789D01*
X870979Y24242D01*
X871901Y24624D01*
X872850Y24933D01*
X873820Y25166D01*
X874806Y25322D01*
X875801Y25400D01*
X876799Y25400D01*
X877794Y25322D01*
X878780Y25166D01*
X879750Y24933D01*
X880699Y24624D01*
X881621Y24242D01*
X882510Y23789D01*
X883361Y23268D01*
X884169Y22681D01*
X884927Y22033D01*
X885633Y21327D01*
X886281Y20569D01*
X886868Y19761D01*
X887389Y18910D01*
X887842Y18021D01*
X888224Y17099D01*
X888533Y16150D01*
X888766Y15180D01*
X888922Y14194D01*
X889000Y13199D01*
X889000Y12201D01*
X888922Y11206D01*
X888766Y10220D01*
X888533Y9250D01*
X888224Y8301D01*
X887842Y7379D01*
X887389Y6490D01*
X886868Y5639D01*
X886281Y4831D01*
X885633Y4073D01*
X884927Y3367D01*
X884169Y2719D01*
X883361Y2132D01*
X882510Y1611D01*
X881621Y1158D01*
X880699Y776D01*
X879750Y467D01*
X878780Y234D01*
X877794Y78D01*
X876799Y0D01*
X875801Y0D01*
X874806Y78D01*
X873820Y234D01*
X872850Y467D01*
X871901Y776D01*
X870979Y1158D01*
X870090Y1611D01*
X869239Y2132D01*
X868431Y2719D01*
X867673Y3367D01*
X866967Y4073D01*
X866319Y4831D01*
X865732Y5639D01*
X865211Y6490D01*
X864758Y7379D01*
X864376Y8301D01*
X864067Y9250D01*
X863834Y10220D01*
X863678Y11206D01*
X863600Y12201D01*
X863600Y13199D01*
X65800Y12164D02*
X65724Y11096D01*
X65571Y10035D01*
X65343Y8988D01*
X65041Y7960D01*
X64667Y6956D01*
X64222Y5981D01*
X63708Y5041D01*
X63129Y4140D01*
X62487Y3282D01*
X61785Y2472D01*
X61028Y1715D01*
X60218Y1013D01*
X59360Y371D01*
X58459Y-208D01*
X57519Y-722D01*
X56544Y-1167D01*
X55540Y-1541D01*
X54512Y-1843D01*
X53465Y-2071D01*
X52404Y-2224D01*
X51336Y-2300D01*
X50264Y-2300D01*
X49196Y-2224D01*
X48135Y-2071D01*
X47088Y-1843D01*
X46060Y-1541D01*
X45056Y-1167D01*
X44081Y-722D01*
X43141Y-208D01*
X42240Y371D01*
X41382Y1013D01*
X40572Y1715D01*
X39815Y2472D01*
X39113Y3282D01*
X38471Y4140D01*
X37892Y5041D01*
X37378Y5981D01*
X36933Y6956D01*
X36559Y7960D01*
X36257Y8988D01*
X36029Y10035D01*
X35876Y11096D01*
X35800Y12164D01*
X35800Y13236D01*
X35876Y14304D01*
X36029Y15365D01*
X36257Y16412D01*
X36559Y17440D01*
X36933Y18444D01*
X37378Y19419D01*
X37892Y20359D01*
X38471Y21260D01*
X39113Y22118D01*
X39815Y22928D01*
X40572Y23685D01*
X41382Y24387D01*
X42240Y25029D01*
X43141Y25608D01*
X44081Y26122D01*
X45056Y26567D01*
X46060Y26941D01*
X47088Y27243D01*
X48135Y27471D01*
X49196Y27624D01*
X50264Y27700D01*
X51336Y27700D01*
X52404Y27624D01*
X53465Y27471D01*
X54512Y27243D01*
X55540Y26941D01*
X56544Y26567D01*
X57519Y26122D01*
X58459Y25608D01*
X59360Y25029D01*
X60218Y24387D01*
X61028Y23685D01*
X61785Y22928D01*
X62487Y22118D01*
X63129Y21260D01*
X63708Y20359D01*
X64222Y19419D01*
X64667Y18444D01*
X65041Y17440D01*
X65343Y16412D01*
X65571Y15365D01*
X65724Y14304D01*
X65800Y13236D01*
X65800Y12164D01*
X1666000Y12164D02*
X1665924Y11096D01*
X1665771Y10035D01*
X1665543Y8988D01*
X1665241Y7960D01*
X1664867Y6956D01*
X1664422Y5981D01*
X1663908Y5041D01*
X1663329Y4140D01*
X1662687Y3282D01*
X1661985Y2472D01*
X1661228Y1715D01*
X1660418Y1013D01*
X1659560Y371D01*
X1658659Y-208D01*
X1657719Y-722D01*
X1656744Y-1167D01*
X1655740Y-1541D01*
X1654712Y-1843D01*
X1653665Y-2071D01*
X1652604Y-2224D01*
X1651536Y-2300D01*
X1650464Y-2300D01*
X1649396Y-2224D01*
X1648335Y-2071D01*
X1647288Y-1843D01*
X1646260Y-1541D01*
X1645256Y-1167D01*
X1644281Y-722D01*
X1643341Y-208D01*
X1642440Y371D01*
X1641582Y1013D01*
X1640772Y1715D01*
X1640015Y2472D01*
X1639313Y3282D01*
X1638671Y4140D01*
X1638092Y5041D01*
X1637578Y5981D01*
X1637133Y6956D01*
X1636759Y7960D01*
X1636457Y8988D01*
X1636229Y10035D01*
X1636076Y11096D01*
X1636000Y12164D01*
X1636000Y13236D01*
X1636076Y14304D01*
X1636229Y15365D01*
X1636457Y16412D01*
X1636759Y17440D01*
X1637133Y18444D01*
X1637578Y19419D01*
X1638092Y20359D01*
X1638671Y21260D01*
X1639313Y22118D01*
X1640015Y22928D01*
X1640772Y23685D01*
X1641582Y24387D01*
X1642440Y25029D01*
X1643341Y25608D01*
X1644281Y26122D01*
X1645256Y26567D01*
X1646260Y26941D01*
X1647288Y27243D01*
X1648335Y27471D01*
X1649396Y27624D01*
X1650464Y27700D01*
X1651536Y27700D01*
X1652604Y27624D01*
X1653665Y27471D01*
X1654712Y27243D01*
X1655740Y26941D01*
X1656744Y26567D01*
X1657719Y26122D01*
X1658659Y25608D01*
X1659560Y25029D01*
X1660418Y24387D01*
X1661228Y23685D01*
X1661985Y22928D01*
X1662687Y22118D01*
X1663329Y21260D01*
X1663908Y20359D01*
X1664422Y19419D01*
X1664867Y18444D01*
X1665241Y17440D01*
X1665543Y16412D01*
X1665771Y15365D01*
X1665924Y14304D01*
X1666000Y13236D01*
X1666000Y12164D01*
X599200Y151864D02*
X599124Y150796D01*
X598971Y149735D01*
X598743Y148688D01*
X598441Y147660D01*
X598067Y146656D01*
X597622Y145681D01*
X597108Y144741D01*
X596529Y143840D01*
X595887Y142982D01*
X595185Y142172D01*
X594428Y141415D01*
X593618Y140713D01*
X592760Y140071D01*
X591859Y139492D01*
X590919Y138978D01*
X589944Y138533D01*
X588940Y138159D01*
X587912Y137857D01*
X586865Y137629D01*
X585804Y137476D01*
X584736Y137400D01*
X583664Y137400D01*
X582596Y137476D01*
X581535Y137629D01*
X580488Y137857D01*
X579460Y138159D01*
X578456Y138533D01*
X577481Y138978D01*
X576541Y139492D01*
X575640Y140071D01*
X574782Y140713D01*
X573972Y141415D01*
X573215Y142172D01*
X572513Y142982D01*
X571871Y143840D01*
X571292Y144741D01*
X570778Y145681D01*
X570333Y146656D01*
X569959Y147660D01*
X569657Y148688D01*
X569429Y149735D01*
X569276Y150796D01*
X569200Y151864D01*
X569200Y152936D01*
X569276Y154004D01*
X569429Y155065D01*
X569657Y156112D01*
X569959Y157140D01*
X570333Y158144D01*
X570778Y159119D01*
X571292Y160059D01*
X571871Y160960D01*
X572513Y161818D01*
X573215Y162628D01*
X573972Y163385D01*
X574782Y164087D01*
X575640Y164729D01*
X576541Y165308D01*
X577481Y165822D01*
X578456Y166267D01*
X579460Y166641D01*
X580488Y166943D01*
X581535Y167171D01*
X582596Y167324D01*
X583664Y167400D01*
X584736Y167400D01*
X585804Y167324D01*
X586865Y167171D01*
X587912Y166943D01*
X588940Y166641D01*
X589944Y166267D01*
X590919Y165822D01*
X591859Y165308D01*
X592760Y164729D01*
X593618Y164087D01*
X594428Y163385D01*
X595185Y162628D01*
X595887Y161818D01*
X596529Y160960D01*
X597108Y160059D01*
X597622Y159119D01*
X598067Y158144D01*
X598441Y157140D01*
X598743Y156112D01*
X598971Y155065D01*
X599124Y154004D01*
X599200Y152936D01*
X599200Y151864D01*
M02*
